<svg width="1024" height="1024" viewBox="0 0 1024 1024" fill="none" xmlns="http://www.w3.org/2000/svg">
<path d="M0 512C0 229.23 229.23 0 512 0V0C794.77 0 1024 229.23 1024 512V512C1024 794.77 794.77 1024 512 1024V1024C229.23 1024 0 794.77 0 512V512Z" fill="black"/>
<path d="M56.7159 538.477V487.341L215.239 423.847V477.54L114.244 512.483L115.949 509.926V515.892L114.244 513.335L215.239 548.278V601.972L56.7159 538.477ZM338.019 622H254.07V403.818H337.167C359.61 403.818 378.999 408.186 395.335 416.922C411.741 425.587 424.383 438.087 433.261 454.422C442.21 470.686 446.684 490.182 446.684 512.909C446.684 535.636 442.245 555.168 433.367 571.503C424.489 587.767 411.918 600.267 395.654 609.003C379.39 617.668 360.178 622 338.019 622ZM313.303 571.716H335.888C346.684 571.716 355.881 569.976 363.481 566.496C371.151 563.016 376.975 557.014 380.952 548.491C385.001 539.969 387.025 528.108 387.025 512.909C387.025 497.71 384.965 485.849 380.846 477.327C376.798 468.804 370.832 462.803 362.948 459.322C355.136 455.842 345.548 454.102 334.184 454.102H313.303V571.716ZM591.703 472C591.135 464.898 588.472 459.358 583.713 455.381C579.026 451.403 571.888 449.415 562.3 449.415C556.192 449.415 551.185 450.161 547.279 451.652C543.444 453.072 540.603 455.026 538.756 457.511C536.909 459.997 535.951 462.838 535.88 466.034C535.738 468.662 536.199 471.041 537.265 473.172C538.401 475.232 540.176 477.114 542.591 478.818C545.006 480.452 548.096 481.943 551.86 483.293C555.624 484.642 560.098 485.849 565.283 486.915L583.181 490.75C595.255 493.307 605.588 496.68 614.182 500.871C622.776 505.061 629.807 509.997 635.276 515.679C640.745 521.29 644.757 527.611 647.314 534.642C649.942 541.673 651.292 549.344 651.363 557.653C651.292 572 647.705 584.145 640.603 594.088C633.5 604.031 623.344 611.595 610.134 616.78C596.995 621.964 581.192 624.557 562.726 624.557C543.763 624.557 527.215 621.751 513.081 616.141C499.019 610.53 488.081 601.901 480.269 590.253C472.527 578.534 468.621 563.548 468.55 545.295H524.8C525.155 551.972 526.824 557.582 529.807 562.128C532.79 566.673 536.98 570.118 542.378 572.462C547.847 574.805 554.346 575.977 561.874 575.977C568.195 575.977 573.486 575.196 577.748 573.634C582.009 572.071 585.24 569.905 587.442 567.135C589.644 564.365 590.78 561.205 590.851 557.653C590.78 554.315 589.679 551.403 587.549 548.918C585.489 546.361 582.08 544.088 577.321 542.099C572.563 540.04 566.135 538.122 558.039 536.347L536.306 531.659C516.988 527.469 501.753 520.473 490.603 510.672C479.523 500.8 474.019 487.341 474.09 470.295C474.019 456.446 477.712 444.337 485.169 433.967C492.698 423.527 503.103 415.395 516.384 409.571C529.736 403.747 545.042 400.835 562.3 400.835C579.914 400.835 595.148 403.783 608.003 409.678C620.858 415.572 630.766 423.882 637.726 434.607C644.757 445.26 648.309 457.724 648.38 472H591.703ZM781.707 393.591L711.395 654.812H661.537L731.849 393.591H781.707ZM966.703 558.932L808.181 622.426V568.733L909.175 533.79L907.471 536.347V530.381L909.175 532.938L808.181 497.994V444.301L966.703 507.795V558.932Z" fill="white"/>
</svg>
